<svg xmlns="http://www.w3.org/2000/svg"><symbol fill="none" id="icon-arrow-up" viewBox="0 0 49 49"><title>arrow-up</title><g filter="url(#a)" transform="rotate(-90 24.499 24.476)"><circle cx="24.499" cy="24.476" r="24.476" fill="#fff"/><circle cx="24.499" cy="24.476" r="23.726" stroke="#862021" stroke-width="1.5"/></g><path d="M9.406 29.144c7.955.018 14.453-6.352 14.595-14.305.142 7.953 6.64 14.323 14.595 14.305" stroke="#862021" stroke-width="1.5"/><defs><filter id="a" x="-11.041" y="-11.064" width="71.079" height="71.079" filterUnits="userSpaceOnUse" color-interpolation-filters="sRGB"><feFlood flood-opacity="0" result="BackgroundImageFix"/><feGaussianBlur in="BackgroundImageFix" stdDeviation="5.532"/><feComposite in2="SourceAlpha" operator="in" result="effect1_backgroundBlur_20_181"/><feBlend in="SourceGraphic" in2="effect1_backgroundBlur_20_181" result="shape"/></filter></defs></symbol><symbol fill="none" id="icon-close" viewBox="0 0 37 35"><title>close</title><path d="M.088 30.834c.608.087 1.317-.188 2.126-.824.84-.607 1.924-1.576 3.255-2.907L26.557 6.015c1.33-1.33 2.3-2.415 2.907-3.254.636-.81.911-1.519.824-2.126l.087-.087 3.732 3.731-.087.087c-.608-.087-1.33.174-2.17.781-.81.637-1.88 1.62-3.21 2.95L7.551 29.187c-1.331 1.33-2.315 2.4-2.951 3.21-.608.84-.868 1.563-.781 2.17l-.087.087-3.73-3.734.086-.087Z" fill="#862021"/><path d="M32.025 34.018c.087-.607-.188-1.316-.824-2.126-.608-.839-1.577-1.924-2.908-3.254L7.206 7.55C5.875 6.22 4.79 5.25 3.95 4.643c-.81-.637-1.518-.912-2.126-.825l-.087-.087L5.47 0l.087.087c-.087.607.173 1.33.78 2.17.637.81 1.62 1.88 2.951 3.21l21.088 21.088c1.33 1.33 2.401 2.314 3.211 2.95.839.608 1.562.868 2.17.782l.086.086-3.731 3.732-.087-.087Z" fill="#862021"/></symbol><symbol fill="none" id="icon-heart" viewBox="0 0 14 12"><title>heart</title><path d="M13.974 3.578C13.785 1.516 12.17 0 10.178 0c-1.32 0-2.53.67-3.23 1.714A3.658 3.658 0 0 0 3.823 0C1.832 0 .217 1.516.028 3.578c-.027.099-.08.571.108 1.366.296 1.143.97 2.162 1.938 2.981L6.947 12l4.954-4.075c.969-.82 1.642-1.838 1.938-2.98.216-.796.162-1.268.135-1.367Z" fill="currentColor"/></symbol><symbol fill="none" id="icon-i" viewBox="0 0 3 15"><title>i</title><path d="M.64 14.074c.12-.09.195-.26.224-.508.04-.249.06-.602.06-1.06V5.254c0-.458-.02-.81-.06-1.06-.03-.248-.104-.417-.223-.507v-.03h1.283v.03c-.12.09-.199.259-.239.508-.03.248-.044.601-.044 1.06v7.253c0 .457.014.81.044 1.06.04.248.12.417.24.507v.03H.64v-.03Z" fill="currentColor"/><path fill-rule="evenodd" clip-rule="evenodd" d="M.531 3.54H2.04v.197l-.045.033c-.084.064-.157.197-.195.434a9.15 9.15 0 0 0-.044 1.044V12.5c0 .455.015.802.044 1.044.038.238.11.37.195.434l.045.033v.198H.53v-.198l.045-.033c.083-.062.151-.193.18-.431v-.005c.039-.24.059-.586.059-1.042V5.248c0-.456-.02-.802-.058-1.042l-.001-.004c-.029-.238-.097-.37-.18-.432L.53 3.737v-.198Zm1.179.223H.858c.063.11.1.25.12.41.04.257.06.617.06 1.075V12.5c0 .459-.02.818-.06 1.075-.02.16-.057.3-.12.41h.852a1.174 1.174 0 0 1-.133-.407v-.005a9.61 9.61 0 0 1-.046-1.073V5.248c0-.46.015-.818.046-1.073v-.004c.026-.16.068-.298.133-.408Z" fill="currentColor"/><circle cx="1.287" cy=".944" r=".865" fill="currentColor"/></symbol><symbol fill="none" id="icon-logo-client" viewBox="0 0 106 30"><title>logo-client</title><path fill="#F1F1F1" d="M.75.875h105v28.25H.75z"/><path d="M13.685 16.256c.063-.637.094-1.44.105-2.14h1.409V18.5h1.493v-5.46h-4.207s-.031 2.203-.104 2.913c-.073.898-.25 1.41-.648 1.41a.499.499 0 0 1-.23-.043v1.2s.158.084.523.084c1.096 0 1.503-.835 1.66-2.348Zm6.824 2.359c1.639 0 2.88-1.096 2.88-2.818v-.084c0-1.701-1.23-2.797-2.87-2.797-1.638 0-2.88 1.117-2.88 2.828v.084c0 1.701 1.242 2.787 2.87 2.787Zm.01-1.148c-.855 0-1.336-.627-1.336-1.67v-.084c0-1.044.501-1.65 1.336-1.65.846 0 1.337.627 1.337 1.67v.074c0 1.033-.491 1.66-1.337 1.66Zm7.568-3.351v-1.075H24.34V18.5h1.492v-4.384h2.255Zm3.209 4.499c1.638 0 2.88-1.096 2.88-2.818v-.084c0-1.701-1.231-2.797-2.87-2.797s-2.88 1.117-2.88 2.828v.084c0 1.701 1.241 2.787 2.87 2.787Zm.01-1.148c-.856 0-1.336-.627-1.336-1.67v-.084c0-1.044.501-1.65 1.336-1.65.846 0 1.336.627 1.336 1.67v.074c0 1.033-.49 1.66-1.336 1.66Zm7.905-4.426h-4.739v1.075h1.618V18.5h1.503v-4.384h1.618v-1.075Zm2.287 5.459 2.108-3.643V18.5h1.493v-5.46h-1.493l-2.108 3.644V13.04h-1.493v5.46h1.492Zm8.277 0h1.492v-5.46h-4.906v5.46h1.493v-4.384h1.92V18.5Zm8.338 0h1.711l-2.15-2.964 1.994-2.495H58.06l-1.764 2.338v-2.338h-1.503V18.5h1.503v-2.578l1.817 2.578Zm4.159-2.244c.062-.637.093-1.44.104-2.14h1.409V18.5h1.493v-5.46H61.07s-.031 2.203-.104 2.913c-.073.898-.25 1.41-.647 1.41-.157 0-.23-.043-.23-.043v1.2s.156.084.522.084c1.096 0 1.503-.835 1.66-2.348Zm5.79 2.244 2.108-3.643V18.5h1.493v-5.46H70.17l-2.108 3.644V13.04h-1.493v5.46h1.493Zm7.369.115c1.492 0 2.432-.658 2.61-1.837h-1.43c-.095.459-.44.762-1.139.762-.824 0-1.315-.522-1.356-1.43h3.935v-.418c0-1.952-1.253-2.776-2.662-2.776-1.587 0-2.808 1.117-2.808 2.839v.083c0 1.743 1.2 2.777 2.85 2.777Zm-1.294-3.434c.114-.773.573-1.222 1.252-1.222.72 0 1.138.397 1.19 1.222h-2.442Zm8.367 3.319h1.493v-5.46h-1.493v2.14H80.48v-2.14h-1.492v5.46h1.492v-2.244h2.025V18.5Zm7.026-5.46h-4.739v1.076h1.618V18.5h1.503v-4.384h1.618v-1.075Zm2.653 4.52c-.553 0-.793-.26-.793-.657 0-.585.511-.772 1.388-.772h.584v.459c0 .605-.51.97-1.179.97Zm-.449 1.055c.856 0 1.336-.334 1.65-.773v.658h1.471v-3.56c0-1.482-.95-2.024-2.286-2.024s-2.359.574-2.453 1.868h1.43c.063-.47.334-.772.93-.772.688 0 .886.354.886 1.002v.219h-.615c-1.67 0-2.84.48-2.84 1.753 0 1.149.836 1.629 1.827 1.629Z" fill="#407287"/></symbol><symbol fill="none" id="icon-logo-rbc" viewBox="0 0 155 19"><title>logo-rbc</title><path d="M16.892.297H0v16.892L16.892.297ZM1.512 18.732h16.892V1.84L1.512 18.732ZM28.183.297h-5.956v18.406H25.9v-6.858h2.371c4.297 0 6.787-2.078 6.787-5.67v-.09c0-3.68-2.52-5.788-6.876-5.788Zm3.26 5.878c0 1.9-1.126 2.91-3.23 2.91H25.93v-5.85h2.282c2.223 0 3.23.892 3.23 2.821v.119ZM44.041 7.54H41.02V3.296h8.001V.297H37.344v18.406h6.608c4.209 0 6.639-2.048 6.639-5.61v-.09c0-3.503-2.312-5.462-6.55-5.462Zm-3.022 2.762h2.726c2.223 0 3.29.89 3.29 2.701v.09c0 1.81-1.067 2.73-3.171 2.73h-2.845v-5.521Zm18.696-1.188L67.33.297h-4.06l-6.668 7.926V.297h-3.705v18.436h3.705v-8.164l6.697 8.164h4.386l-7.971-9.619Zm8.145.534v-.207C67.86 3.978 71.533 0 76.512 0c3.852 0 7.083 2.048 7.468 6.056h-2.223c-.474-2.82-2.074-4.275-5.245-4.275-3.823 0-6.372 2.969-6.372 7.63v.208c0 4.69 2.371 7.54 6.342 7.54 3.023 0 5.097-1.514 5.572-4.512h2.074C83.477 16.922 80.543 19 76.424 19c-5.275-.03-8.565-3.681-8.565-9.352Zm24.692-7.54h-5.365V.297h12.981v1.84h-5.364v16.625h-2.252V2.108Zm10.667 16.654V.297h2.252v15.378L115.429.297h2.252v18.465h-2.252V3.384l-9.958 15.378h-2.252Zm18.402.207c-.682 0-1.008-.208-1.008-.208v-2.167s.297.089 1.008.089c1.482 0 2.015-1.514 2.282-4.602.385-5.106.444-11.815.444-11.815h11.084V18.73h-2.252V2.166h-6.787c-.059 2.375-.178 6.56-.415 10.093-.207 3.533-1.126 6.71-4.356 6.71ZM140.055.297h2.252v7.51h2.993c3.497 0 6.461 1.426 6.461 5.345v.089c0 3.859-2.905 5.492-6.461 5.492h-5.245V.297Zm5.393 16.655c2.49 0 4.06-1.099 4.06-3.682v-.089c0-2.375-1.422-3.562-4.06-3.562h-3.141v7.362h3.141v-.03Z" fill="#000"/></symbol><symbol fill="none" id="icon-ok" viewBox="0 0 10 15"><title>ok</title><path d="M4.719.586C2.59.586.867 2.249.867 4.299c0 2.051 1.724 3.714 3.852 3.714 2.127 0 3.851-1.663 3.851-3.714C8.57 2.25 6.846.586 4.719.586Zm0 5.249c-.88 0-1.592-.688-1.592-1.536 0-.847.712-1.535 1.592-1.535.879 0 1.592.688 1.592 1.535 0 .848-.713 1.536-1.592 1.536Zm1.421 5.132c1.542-.303 2.466-1.007 2.515-1.045a.985.985 0 0 0 .162-1.419 1.074 1.074 0 0 0-1.472-.156c-.01.007-.995.736-2.617.737-1.621 0-2.627-.73-2.637-.737a1.074 1.074 0 0 0-1.472.156.985.985 0 0 0 .162 1.42c.05.038 1.011.76 2.597 1.056l-2.21 2.226a.984.984 0 0 0 .027 1.428c.204.189.465.283.727.283.275 0 .549-.104.754-.31L4.728 12.5l2.26 2.121c.41.394 1.072.394 1.48 0a.984.984 0 0 0 0-1.429L6.14 10.967Z" fill="#fff"/></symbol><symbol fill="none" id="icon-tg" viewBox="0 0 14 13"><title>tg</title><path fill-rule="evenodd" clip-rule="evenodd" d="M1.212 5.783C4.814 4.11 7.217 3.01 8.419 2.477 11.85.957 12.564.693 13.029.685c.102-.002.33.025.479.153a.57.57 0 0 1 .176.356c.016.102.036.336.02.518-.186 2.08-.99 7.13-1.4 9.46-.173.986-.514 1.316-.845 1.349-.717.07-1.262-.505-1.957-.99-1.088-.76-1.702-1.232-2.758-1.973-1.22-.856-.43-1.326.266-2.095.182-.202 3.344-3.264 3.405-3.542.008-.034.015-.164-.057-.232-.073-.069-.18-.045-.256-.027-.11.027-1.847 1.25-5.213 3.669-.493.36-.94.536-1.34.527-.441-.01-1.29-.266-1.921-.484-.774-.268-1.39-.41-1.336-.865.028-.236.335-.479.92-.726Z" fill="#fff"/></symbol><symbol fill="none" id="icon-vk" viewBox="0 0 15 8"><title>vk</title><path fill-rule="evenodd" clip-rule="evenodd" d="M13.983.601c.103-.306 0-.532-.467-.532h-1.551c-.392 0-.57.199-.675.409 0 0-.795 1.796-1.914 2.963-.363.339-.524.452-.72.452-.104 0-.243-.113-.243-.42V.585c0-.366-.12-.532-.45-.532H5.526c-.242 0-.392.166-.392.339 0 .35.56.435.617 1.42v2.134c0 .463-.092.549-.288.549-.525 0-1.805-1.812-2.572-3.878-.15-.408-.3-.559-.692-.559H.63c-.45 0-.525.2-.525.409 0 .376.525 2.29 2.457 4.813C3.842 7.006 5.663 7.931 7.3 7.931c.991 0 1.112-.21 1.112-.559V6.065c0-.42.093-.49.404-.49.225 0 .634.114 1.55.942 1.056.984 1.235 1.43 1.823 1.43h1.55c.45 0 .664-.21.543-.618-.133-.409-.646-.995-1.31-1.7-.362-.392-.904-.828-1.066-1.037-.225-.28-.167-.393 0-.646-.017-.005 1.88-2.506 2.076-3.345Z" fill="#fff"/></symbol></svg>