<svg width="136" height="40" viewBox="0 0 136 40" fill="none" xmlns="http://www.w3.org/2000/svg">
<g clip-path="url(#clip0_9_19995)">
<path fill-rule="evenodd" clip-rule="evenodd" d="M130.961 40H5.03889C2.26175 40 0 37.7456 0 35V5C0 2.24439 2.26175 0 5.03889 0H130.961C133.736 0 136 2.24439 136 5V35C136 37.7456 133.736 40 130.961 40Z" fill="black"/>
<path fill-rule="evenodd" clip-rule="evenodd" d="M131 1H5C2.79086 1 1 2.79086 1 5V35C1 37.2091 2.79086 39 5 39H131C133.209 39 135 37.2091 135 35V5C135 2.79086 133.209 1 131 1ZM5 0C2.23858 0 0 2.23858 0 5V35C0 37.7614 2.23857 40 5 40H131C133.761 40 136 37.7614 136 35V5C136 2.23858 133.761 0 131 0H5Z" fill="white"/>
<path d="M31.7973 20.3003C31.8081 19.4657 32.0298 18.6473 32.4418 17.9213C32.8538 17.1954 33.4428 16.5854 34.1539 16.1483C33.7021 15.5031 33.1062 14.9722 32.4134 14.5976C31.7205 14.2231 30.9499 14.0152 30.1627 13.9906C28.4835 13.8143 26.8555 14.9954 25.9998 14.9954C25.1275 14.9954 23.81 14.0081 22.3913 14.0373C21.4736 14.0669 20.5793 14.3338 19.7954 14.8118C19.0115 15.2899 18.3649 15.9629 17.9184 16.7651C15.9844 20.1136 17.427 25.0346 19.2796 27.7412C20.2065 29.0666 21.2898 30.547 22.7072 30.4945C24.0943 30.437 24.6123 29.61 26.2866 29.61C27.9454 29.61 28.4314 30.4945 29.8776 30.4611C31.366 30.437 32.3038 29.1299 33.1981 27.792C33.8641 26.8476 34.3766 25.8039 34.7166 24.6995C33.8518 24.3338 33.1139 23.7216 32.5948 22.9393C32.0757 22.157 31.7983 21.2392 31.7973 20.3003V20.3003Z" fill="white"/>
<path d="M29.0656 12.2103C29.8772 11.2361 30.277 9.98396 30.1802 8.71973C28.9403 8.84995 27.7951 9.44251 26.9726 10.3793C26.5704 10.837 26.2624 11.3694 26.0662 11.9462C25.87 12.523 25.7893 13.1328 25.8289 13.7407C26.449 13.7471 27.0625 13.6127 27.6232 13.3476C28.1838 13.0825 28.6771 12.6937 29.0656 12.2103Z" fill="white"/>
<path d="M51.875 27.1387H47.1416L46.0049 30.4951H44L48.4834 18.0771H50.5664L55.0498 30.4951H53.0107L51.875 27.1387ZM47.6318 25.5899H51.3838L49.5342 20.1426H49.4825L47.6318 25.5899Z" fill="white"/>
<path d="M64.7325 25.9685C64.7325 28.782 63.2266 30.5896 60.9541 30.5896C60.3785 30.6197 59.806 30.4871 59.3022 30.2069C58.7984 29.9268 58.3837 29.5105 58.1055 29.0056H58.0625V33.4899H56.2041V21.4411H58.003V22.947H58.0371C58.3281 22.4445 58.7498 22.0303 59.2575 21.7485C59.7651 21.4666 60.3396 21.3277 60.92 21.3464C63.2178 21.3464 64.7325 23.1628 64.7325 25.9685ZM62.8223 25.9685C62.8223 24.1355 61.875 22.9304 60.4297 22.9304C59.0098 22.9304 58.0547 24.1609 58.0547 25.9685C58.0547 27.7927 59.0098 29.0144 60.4297 29.0144C61.875 29.0144 62.8223 27.8181 62.8223 25.9685Z" fill="white"/>
<path d="M74.6973 25.9685C74.6973 28.7819 73.1914 30.5896 70.919 30.5896C70.3433 30.6197 69.7708 30.4871 69.267 30.2069C68.7632 29.9268 68.3485 29.5104 68.0703 29.0056H68.0273V33.4899H66.1689V21.4411H67.9678V22.947H68.0019C68.2929 22.4445 68.7146 22.0303 69.2223 21.7485C69.7299 21.4666 70.3044 21.3277 70.8848 21.3464C73.1826 21.3464 74.6973 23.1628 74.6973 25.9685ZM72.7871 25.9685C72.7871 24.1355 71.8399 22.9304 70.3946 22.9304C68.9746 22.9304 68.0196 24.1608 68.0196 25.9685C68.0196 27.7927 68.9746 29.0144 70.3946 29.0144C71.8399 29.0144 72.7871 27.8181 72.7871 25.9685H72.7871Z" fill="white"/>
<path d="M81.2832 27.0352C81.4209 28.2667 82.6172 29.0752 84.252 29.0752C85.8184 29.0752 86.9453 28.2666 86.9453 27.1563C86.9453 26.1924 86.2657 25.6153 84.6563 25.2197L83.0469 24.832C80.7666 24.2813 79.708 23.2148 79.708 21.4844C79.708 19.3418 81.5752 17.8701 84.2266 17.8701C86.8506 17.8701 88.6494 19.3418 88.71 21.4844H86.834C86.7217 20.2451 85.6973 19.4971 84.2002 19.4971C82.7031 19.4971 81.6787 20.2539 81.6787 21.3555C81.6787 22.2334 82.333 22.75 83.9336 23.1455L85.3018 23.4814C87.8496 24.084 88.9082 25.1074 88.9082 26.9238C88.9082 29.247 87.0576 30.7021 84.1143 30.7021C81.3603 30.7021 79.501 29.2812 79.3809 27.0351L81.2832 27.0352Z" fill="white"/>
<path d="M92.9189 19.2988V21.4414H94.6406V22.9131H92.9189V27.9043C92.9189 28.6797 93.2637 29.041 94.0205 29.041C94.2249 29.0375 94.429 29.0231 94.6318 28.998V30.4609C94.2916 30.5245 93.9457 30.5533 93.5996 30.5468C91.7666 30.5468 91.0518 29.8584 91.0518 28.1025V22.9131H89.7354V21.4414H91.0517V19.2988H92.9189Z" fill="white"/>
<path d="M95.6377 25.9687C95.6377 23.1201 97.3154 21.3301 99.9316 21.3301C102.557 21.3301 104.227 23.1201 104.227 25.9687C104.227 28.8252 102.565 30.6074 99.9316 30.6074C97.2988 30.6074 95.6377 28.8252 95.6377 25.9687ZM102.333 25.9687C102.333 24.0146 101.437 22.8613 99.9316 22.8613C98.4258 22.8613 97.5312 24.0234 97.5312 25.9687C97.5312 27.9307 98.4258 29.0752 99.9316 29.0752C101.437 29.0752 102.333 27.9307 102.333 25.9687H102.333Z" fill="white"/>
<path d="M105.759 21.441H107.531V22.982H107.574C107.694 22.5008 107.976 22.0754 108.373 21.7775C108.769 21.4797 109.256 21.3274 109.752 21.3463C109.966 21.3456 110.18 21.3688 110.389 21.4156V23.1539C110.118 23.0713 109.836 23.0334 109.554 23.0416C109.284 23.0307 109.015 23.0783 108.765 23.1812C108.515 23.284 108.29 23.4398 108.106 23.6377C107.922 23.8356 107.783 24.0709 107.699 24.3276C107.615 24.5843 107.587 24.8562 107.617 25.1246V30.4947H105.759L105.759 21.441Z" fill="white"/>
<path d="M118.957 27.8359C118.707 29.4795 117.106 30.6074 115.059 30.6074C112.425 30.6074 110.79 28.8428 110.79 26.0117C110.79 23.1719 112.434 21.3301 114.98 21.3301C117.485 21.3301 119.061 23.0508 119.061 25.7959V26.4326H112.666V26.5449C112.637 26.8781 112.678 27.2138 112.788 27.5296C112.899 27.8455 113.075 28.1342 113.305 28.3768C113.535 28.6193 113.815 28.8101 114.124 28.9364C114.434 29.0627 114.767 29.1217 115.102 29.1094C115.541 29.1505 115.981 29.0488 116.358 28.8194C116.735 28.5899 117.027 28.245 117.192 27.8359L118.957 27.8359ZM112.675 25.1338H117.201C117.218 24.8342 117.172 24.5344 117.068 24.2532C116.963 23.972 116.801 23.7154 116.593 23.4997C116.384 23.2839 116.133 23.1136 115.856 22.9993C115.579 22.8851 115.28 22.8295 114.98 22.8359C114.678 22.8341 114.378 22.8923 114.098 23.007C113.818 23.1218 113.563 23.2908 113.349 23.5045C113.134 23.7181 112.965 23.9721 112.849 24.2517C112.733 24.5314 112.674 24.8312 112.675 25.1338V25.1338Z" fill="white"/>
<path d="M47.3989 8.7304C47.7885 8.70244 48.1795 8.7613 48.5436 8.90274C48.9077 9.04417 49.2359 9.26465 49.5045 9.54828C49.7731 9.8319 49.9754 10.1716 50.0968 10.5429C50.2182 10.9141 50.2557 11.3077 50.2065 11.6952C50.2065 13.6015 49.1763 14.6972 47.3989 14.6972H45.2437V8.7304H47.3989ZM46.1704 13.8534H47.2954C47.5738 13.87 47.8524 13.8244 48.111 13.7198C48.3695 13.6152 48.6015 13.4542 48.79 13.2487C48.9784 13.0431 49.1187 12.7981 49.2006 12.5315C49.2824 12.2648 49.3038 11.9833 49.2632 11.7074C49.3009 11.4326 49.2773 11.1528 49.1942 10.8881C49.1111 10.6235 48.9705 10.3805 48.7824 10.1765C48.5943 9.97261 48.3635 9.8128 48.1064 9.70856C47.8493 9.60433 47.5724 9.55824 47.2954 9.57361H46.1704V13.8534Z" fill="white"/>
<path d="M51.2535 12.4438C51.2251 12.1479 51.259 11.8493 51.3528 11.5672C51.4467 11.2852 51.5984 11.0258 51.7984 10.8059C51.9983 10.5859 52.242 10.4101 52.5139 10.2898C52.7857 10.1696 53.0797 10.1074 53.377 10.1074C53.6743 10.1074 53.9682 10.1696 54.2401 10.2898C54.5119 10.4101 54.7557 10.5859 54.9556 10.8059C55.1555 11.0258 55.3073 11.2852 55.4011 11.5672C55.495 11.8493 55.5288 12.1479 55.5005 12.4438C55.5294 12.74 55.4959 13.039 55.4023 13.3215C55.3087 13.6041 55.1571 13.8639 54.9571 14.0843C54.7571 14.3047 54.5132 14.4808 54.2411 14.6014C53.9689 14.7219 53.6746 14.7842 53.377 14.7842C53.0794 14.7842 52.785 14.7219 52.5129 14.6014C52.2408 14.4808 51.9969 14.3047 51.7969 14.0843C51.5969 13.8639 51.4452 13.6041 51.3516 13.3215C51.2581 13.039 51.2246 12.74 51.2535 12.4438V12.4438ZM54.5865 12.4438C54.5865 11.4677 54.148 10.8969 53.3785 10.8969C52.606 10.8969 52.1715 11.4677 52.1715 12.4438C52.1715 13.4277 52.606 13.9941 53.3785 13.9941C54.148 13.9941 54.5865 13.4238 54.5865 12.4438H54.5865Z" fill="white"/>
<path d="M61.146 14.6973H60.2241L59.2935 11.3809H59.2232L58.2964 14.6973H57.3833L56.1421 10.1943H57.0435L57.8501 13.6303H57.9165L58.8423 10.1943H59.6948L60.6206 13.6303H60.6909L61.4937 10.1943H62.3823L61.146 14.6973Z" fill="white"/>
<path d="M63.4263 10.1939H64.2817V10.9092H64.3481C64.4608 10.6523 64.6508 10.4369 64.8917 10.2931C65.1325 10.1493 65.4123 10.0842 65.6919 10.107C65.911 10.0905 66.131 10.1235 66.3356 10.2036C66.5402 10.2837 66.7241 10.4088 66.8738 10.5697C67.0235 10.7305 67.1351 10.923 67.2003 11.1328C67.2655 11.3426 67.2826 11.5644 67.2505 11.7818V14.6968H66.3618V12.0049C66.3618 11.2813 66.0474 10.9214 65.3901 10.9214C65.2414 10.9145 65.0929 10.9398 64.9548 10.9957C64.8168 11.0515 64.6924 11.1365 64.5903 11.2449C64.4882 11.3533 64.4107 11.4825 64.3632 11.6236C64.3156 11.7647 64.2992 11.9145 64.3149 12.0625V14.6968H63.4263L63.4263 10.1939Z" fill="white"/>
<path d="M68.6665 8.43652H69.5552V14.6973H68.6665V8.43652Z" fill="white"/>
<path d="M70.7905 12.4439C70.7623 12.1479 70.7961 11.8494 70.89 11.5673C70.9838 11.2852 71.1356 11.0259 71.3356 10.8059C71.5356 10.5859 71.7793 10.4101 72.0512 10.2898C72.323 10.1696 72.617 10.1074 72.9143 10.1074C73.2116 10.1074 73.5056 10.1696 73.7775 10.2898C74.0494 10.4101 74.2931 10.5859 74.493 10.8059C74.693 11.0259 74.8448 11.2852 74.9386 11.5673C75.0325 11.8494 75.0664 12.1479 75.0381 12.4439C75.0669 12.7401 75.0334 13.0391 74.9398 13.3216C74.8462 13.6042 74.6945 13.864 74.4945 14.0844C74.2945 14.3048 74.0506 14.4809 73.7784 14.6014C73.5063 14.722 73.212 14.7842 72.9143 14.7842C72.6167 14.7842 72.3223 14.722 72.0502 14.6014C71.7781 14.4809 71.5342 14.3048 71.3342 14.0844C71.1341 13.864 70.9825 13.6042 70.8888 13.3216C70.7952 13.0391 70.7617 12.7401 70.7905 12.4439V12.4439ZM74.1235 12.4439C74.1235 11.4678 73.6851 10.897 72.9155 10.897C72.1431 10.897 71.7085 11.4678 71.7085 12.4439C71.7085 13.4278 72.1431 13.9942 72.9155 13.9942C73.6851 13.9942 74.1235 13.4239 74.1235 12.4439H74.1235Z" fill="white"/>
<path d="M75.9736 13.4238C75.9736 12.6133 76.5771 12.146 77.6484 12.0796L78.8682 12.0093V11.6206C78.8682 11.145 78.5537 10.8765 77.9463 10.8765C77.4502 10.8765 77.1065 11.0586 77.0078 11.377H76.1475C76.2383 10.6035 76.9658 10.1074 77.9873 10.1074C79.1162 10.1074 79.7529 10.6694 79.7529 11.6206V14.6973H78.8975V14.0645H78.8271C78.6844 14.2914 78.484 14.4765 78.2464 14.6007C78.0088 14.7249 77.7425 14.7838 77.4746 14.7715C77.2856 14.7911 77.0945 14.7709 76.9138 14.7122C76.733 14.6536 76.5665 14.5576 76.4251 14.4307C76.2837 14.3037 76.1705 14.1485 76.0927 13.9751C76.0149 13.8017 75.9744 13.6139 75.9736 13.4238V13.4238ZM78.8682 13.0391V12.6626L77.7686 12.7329C77.1484 12.7744 76.8672 12.9853 76.8672 13.3823C76.8672 13.7876 77.2187 14.0234 77.7022 14.0234C77.8438 14.0378 77.9869 14.0235 78.1229 13.9814C78.2589 13.9393 78.3851 13.8703 78.4939 13.7784C78.6026 13.6866 78.6918 13.5738 78.7561 13.4468C78.8204 13.3198 78.8585 13.1811 78.8682 13.0391V13.0391Z" fill="white"/>
<path d="M80.9209 12.4439C80.9209 11.021 81.6523 10.1196 82.79 10.1196C83.0715 10.1067 83.3508 10.1741 83.5953 10.314C83.8398 10.4539 84.0395 10.6605 84.1709 10.9096H84.2373V8.43652H85.126V14.6973H84.2744V13.9858H84.2041C84.0625 14.2333 83.8559 14.4374 83.6066 14.5758C83.3574 14.7143 83.075 14.782 82.79 14.7715C81.6445 14.7715 80.9209 13.8701 80.9209 12.4439ZM81.8389 12.4439C81.8389 13.3989 82.2891 13.9737 83.042 13.9737C83.791 13.9737 84.2539 13.3907 84.2539 12.4478C84.2539 11.5093 83.7862 10.918 83.042 10.918C82.294 10.918 81.8389 11.4966 81.8389 12.4439H81.8389Z" fill="white"/>
<path d="M88.8028 12.4438C88.7745 12.1479 88.8083 11.8493 88.9022 11.5672C88.996 11.2852 89.1478 11.0258 89.3477 10.8059C89.5476 10.5859 89.7913 10.4101 90.0632 10.2898C90.335 10.1696 90.629 10.1074 90.9263 10.1074C91.2236 10.1074 91.5176 10.1696 91.7894 10.2898C92.0613 10.4101 92.305 10.5859 92.5049 10.8059C92.7049 11.0258 92.8566 11.2852 92.9505 11.5672C93.0443 11.8493 93.0781 12.1479 93.0498 12.4438C93.0787 12.74 93.0452 13.039 92.9516 13.3215C92.8581 13.6041 92.7064 13.8639 92.5064 14.0843C92.3064 14.3047 92.0625 14.4808 91.7904 14.6014C91.5183 14.7219 91.2239 14.7842 90.9263 14.7842C90.6287 14.7842 90.3343 14.7219 90.0622 14.6014C89.7901 14.4808 89.5462 14.3047 89.3462 14.0843C89.1462 13.8639 88.9946 13.6041 88.901 13.3215C88.8074 13.039 88.7739 12.74 88.8028 12.4438V12.4438ZM92.1358 12.4438C92.1358 11.4677 91.6973 10.8969 90.9278 10.8969C90.1553 10.8969 89.7208 11.4677 89.7208 12.4438C89.7208 13.4277 90.1553 13.9941 90.9278 13.9941C91.6973 13.9941 92.1358 13.4238 92.1358 12.4438Z" fill="white"/>
<path d="M94.2422 10.1939H95.0977V10.9092H95.1641C95.2767 10.6523 95.4667 10.4369 95.7076 10.2931C95.9485 10.1493 96.2282 10.0842 96.5078 10.107C96.7269 10.0905 96.9469 10.1235 97.1515 10.2036C97.3561 10.2837 97.5401 10.4088 97.6898 10.5697C97.8394 10.7305 97.951 10.923 98.0162 11.1328C98.0814 11.3426 98.0986 11.5644 98.0664 11.7818V14.6968H97.1777V12.0049C97.1777 11.2813 96.8633 10.9214 96.2061 10.9214C96.0573 10.9145 95.9088 10.9398 95.7707 10.9957C95.6327 11.0515 95.5083 11.1365 95.4062 11.2449C95.3041 11.3533 95.2266 11.4825 95.1791 11.6236C95.1315 11.7647 95.1151 11.9145 95.1309 12.0625V14.6968H94.2422V10.1939Z" fill="white"/>
<path d="M103.088 9.07324V10.2148H104.063V10.9634H103.088V13.2788C103.088 13.7505 103.282 13.957 103.725 13.957C103.838 13.9567 103.951 13.9498 104.063 13.9365V14.6768C103.904 14.7053 103.742 14.7205 103.58 14.7222C102.592 14.7222 102.198 14.3745 102.198 13.5063V10.9633H101.483V10.2148H102.198V9.07324H103.088Z" fill="white"/>
<path d="M105.277 8.43652H106.158V10.918H106.229C106.347 10.6587 106.542 10.4421 106.788 10.2977C107.033 10.1534 107.317 10.0883 107.602 10.1113C107.819 10.0995 108.037 10.1359 108.24 10.2179C108.442 10.2999 108.624 10.4256 108.772 10.586C108.92 10.7463 109.031 10.9373 109.097 11.1455C109.162 11.3536 109.181 11.5737 109.152 11.79V14.6973H108.263V12.0093C108.263 11.29 107.928 10.9258 107.3 10.9258C107.147 10.9132 106.993 10.9342 106.85 10.9873C106.706 11.0404 106.575 11.1242 106.467 11.2329C106.359 11.3417 106.277 11.4727 106.224 11.6168C106.172 11.761 106.152 11.9147 106.166 12.0674V14.6973H105.277L105.277 8.43652Z" fill="white"/>
<path d="M114.334 13.4815C114.213 13.8931 113.952 14.249 113.595 14.4872C113.238 14.7253 112.809 14.8305 112.383 14.7842C112.086 14.7921 111.791 14.7353 111.519 14.6177C111.246 14.5002 111.003 14.3248 110.805 14.1036C110.607 13.8825 110.459 13.6209 110.373 13.3371C110.286 13.0533 110.262 12.754 110.303 12.46C110.263 12.1652 110.287 11.8652 110.374 11.5805C110.46 11.2959 110.607 11.0331 110.804 10.81C111.001 10.587 111.243 10.4088 111.515 10.2876C111.787 10.1664 112.081 10.105 112.379 10.1075C113.632 10.1075 114.388 10.9635 114.388 12.3775V12.6876H111.208V12.7374C111.194 12.9026 111.215 13.069 111.269 13.2257C111.323 13.3825 111.409 13.5262 111.522 13.6476C111.635 13.7691 111.772 13.8656 111.925 13.931C112.077 13.9964 112.241 14.0292 112.407 14.0274C112.62 14.0529 112.835 14.0146 113.026 13.9174C113.217 13.8202 113.374 13.6685 113.478 13.4815L114.334 13.4815ZM111.208 12.0303H113.482C113.494 11.8792 113.473 11.7274 113.422 11.5847C113.371 11.442 113.291 11.3115 113.186 11.2016C113.082 11.0918 112.956 11.005 112.816 10.9468C112.676 10.8886 112.525 10.8604 112.374 10.8638C112.22 10.8619 112.068 10.8908 111.925 10.9487C111.783 11.0067 111.654 11.0925 111.545 11.2012C111.436 11.3099 111.35 11.4393 111.293 11.5817C111.235 11.7241 111.206 11.8766 111.208 12.0303H111.208Z" fill="white"/>
</g>
<defs>
<clipPath id="clip0_9_19995">
<rect width="136" height="40" fill="white"/>
</clipPath>
</defs>
</svg>
