<svg width="340" height="80" viewBox="0 0 340 80" fill="none" xmlns="http://www.w3.org/2000/svg">
<rect x="0.5" y="0.5" width="339" height="79" rx="39.5" stroke="white"/>
<rect x="30" y="40" width="280" height="1" fill="white"/>
<path d="M17.2175 37.4246L19.7929 40H1.20711L3.78249 37.4246C7.49247 33.7146 13.5075 33.7146 17.2175 37.4246ZM3.78249 43.5754L1.20711 41H19.7929L17.2175 43.5754C13.5075 47.2854 7.49247 47.2854 3.78249 43.5754Z" stroke="white"/>
<path d="M336.218 37.4246L338.793 40H320.207L322.782 37.4246C326.492 33.7146 332.508 33.7146 336.218 37.4246ZM322.782 43.5754L320.207 41H338.793L336.218 43.5754C332.508 47.2854 326.492 47.2854 322.782 43.5754Z" stroke="white"/>
</svg>
