<svg width="136" height="40" viewBox="0 0 136 40" fill="none" xmlns="http://www.w3.org/2000/svg">
<g clip-path="url(#clip0_9_19996)">
<path fill-rule="evenodd" clip-rule="evenodd" d="M130.961 40H5.03889C2.26175 40 0 37.7456 0 35V5C0 2.24439 2.26175 0 5.03889 0H130.961C133.736 0 136 2.24439 136 5V35C136 37.7456 133.736 40 130.961 40Z" fill="black"/>
<path fill-rule="evenodd" clip-rule="evenodd" d="M131 1H5C2.79086 1 1 2.79086 1 5V35C1 37.2091 2.79086 39 5 39H131C133.209 39 135 37.2091 135 35V5C135 2.79086 133.209 1 131 1ZM5 0C2.23858 0 0 2.23858 0 5V35C0 37.7614 2.23857 40 5 40H131C133.761 40 136 37.7614 136 35V5C136 2.23858 133.761 0 131 0H5Z" fill="white"/>
<path d="M71.4113 13.232C70.5061 13.232 69.743 12.9153 69.1395 12.2918C68.541 11.6858 68.2068 10.8504 68.2218 9.99755C68.2218 9.08732 68.531 8.31675 69.1395 7.70578C69.7405 7.08233 70.5036 6.76562 71.4088 6.76562C72.3041 6.76562 73.0672 7.08233 73.6806 7.70578C74.2891 8.3367 74.5983 9.10727 74.5983 9.99755C74.5883 10.9103 74.2791 11.6808 73.6806 12.2893C73.0796 12.9177 72.3165 13.232 71.4113 13.232ZM44.4763 13.232C43.591 13.232 42.823 12.9202 42.1945 12.3043C41.5711 11.6908 41.2544 10.9153 41.2544 10C41.2544 9.08483 41.5711 8.30927 42.1945 7.6958C42.8105 7.07984 43.5786 6.76812 44.4763 6.76812C44.9152 6.76812 45.3416 6.8554 45.7506 7.03246C46.1521 7.20453 46.4788 7.43894 46.7207 7.72572L46.7805 7.79804L46.1047 8.46139L46.0349 8.37909C45.6534 7.92523 45.1421 7.70328 44.4663 7.70328C43.8629 7.70328 43.3367 7.91775 42.9028 8.34169C42.4664 8.76812 42.2444 9.32672 42.2444 10.0025C42.2444 10.6783 42.4664 11.2369 42.9028 11.6634C43.3367 12.0873 43.8629 12.3018 44.4663 12.3018C45.1097 12.3018 45.6509 12.0873 46.0723 11.6634C46.3217 11.414 46.4763 11.0649 46.5312 10.6235H44.3641V9.69081H47.4613L47.4738 9.7756C47.4962 9.93271 47.5187 10.0948 47.5187 10.2444C47.5187 11.1048 47.2593 11.8005 46.7456 12.3143C46.1621 12.9227 45.399 13.232 44.4763 13.232ZM80.2891 13.0998H79.334L76.4088 8.41899L76.4337 9.26188V13.0973H75.4786V6.90029H76.5684L76.5983 6.94767L79.3489 11.3566L79.324 10.5162V6.90029H80.2891V13.0998V13.0998ZM64.2343 13.0998H63.2667V7.83296H61.5884V6.90029H65.9101V7.83296H64.2318V13.0998H64.2343ZM60.8004 13.0998H59.8353V6.90029H60.8004V13.0998ZM55.3765 13.0998H54.4114V7.83296H52.7331V6.90029H57.0548V7.83296H55.3765V13.0998ZM52.1222 13.0898H48.4214V6.90029H52.1222V7.83296H49.389V9.53371H51.8553V10.4564H49.389V12.1571H52.1222V13.0898ZM69.8477 11.6509C70.2791 12.0823 70.8028 12.2993 71.4113 12.2993C72.0372 12.2993 72.5485 12.0873 72.9749 11.6509C73.3988 11.227 73.6133 10.6709 73.6133 10C73.6133 9.32922 73.3988 8.77061 72.9774 8.34917C72.546 7.91774 72.0198 7.70079 71.4138 7.70079C70.7879 7.70079 70.2767 7.91276 69.8527 8.34917C69.4288 8.77311 69.2143 9.32922 69.2143 10C69.2143 10.6709 69.4263 11.2295 69.8477 11.6509Z" fill="white"/>
<path fill-rule="evenodd" clip-rule="evenodd" d="M68.1321 21.7554C65.7755 21.7554 63.8652 23.5434 63.8652 26.0098C63.8652 28.4537 65.7879 30.2641 68.1321 30.2641C70.4887 30.2641 72.3989 28.4636 72.3989 26.0098C72.3989 23.5434 70.4887 21.7554 68.1321 21.7554ZM68.1321 28.5784C66.8428 28.5784 65.7331 27.511 65.7331 25.9998C65.7331 24.4661 66.8453 23.4213 68.1321 23.4213C69.4213 23.4213 70.5311 24.4661 70.5311 25.9998C70.5336 27.521 69.4213 28.5784 68.1321 28.5784ZM58.8228 21.7554C56.4662 21.7554 54.556 23.5434 54.556 26.0098C54.556 28.4537 56.4787 30.2641 58.8228 30.2641C61.1794 30.2641 63.0897 28.4636 63.0897 26.0098C63.0897 23.5434 61.1769 21.7554 58.8228 21.7554ZM58.8228 28.5784C57.5336 28.5784 56.4238 27.511 56.4238 25.9998C56.4238 24.4661 57.536 23.4213 58.8228 23.4213C60.1121 23.4213 61.2218 24.4661 61.2218 25.9998C61.2218 27.521 60.1121 28.5784 58.8228 28.5784ZM47.7455 23.0547V24.8552H52.0672C51.935 25.8651 51.6009 26.6108 51.0896 27.122C50.4562 27.7554 49.4787 28.4437 47.7555 28.4437C45.0996 28.4437 43.0223 26.2991 43.0223 23.6432C43.0223 20.9873 45.0996 18.8427 47.7555 18.8427C49.1894 18.8427 50.2343 19.4088 51.0098 20.132L52.2867 18.8552C51.2093 17.8227 49.7754 17.0322 47.7655 17.0322C44.1221 17.0322 41.0647 19.9998 41.0647 23.6332C41.0647 27.2766 44.1196 30.2342 47.7655 30.2342C49.733 30.2342 51.2094 29.5908 52.3764 28.3789C53.566 27.1893 53.9425 25.511 53.9425 24.1569C53.9425 23.7355 53.9101 23.3564 53.8428 23.0347H47.743C47.7455 23.0322 47.7455 23.0547 47.7455 23.0547ZM93.0548 24.4562C92.6982 23.5011 91.6209 21.7454 89.4114 21.7454C87.2219 21.7454 85.4014 23.4686 85.4014 25.9998C85.4014 28.3888 87.2019 30.2542 89.6234 30.2542C91.5685 30.2542 92.7007 29.0646 93.167 28.3664L91.7231 27.3988C91.2443 28.1095 90.5785 28.5759 89.6333 28.5759C88.6782 28.5759 88.0099 28.142 87.566 27.2866L93.2543 24.93C93.2543 24.9325 93.0548 24.4562 93.0548 24.4562ZM87.2543 25.8776C87.2094 24.2342 88.5311 23.3988 89.4762 23.3988C90.2219 23.3988 90.8428 23.7654 91.0548 24.2991L87.2543 25.8776ZM82.6333 29.9998H84.5012V17.5011H82.6333V29.9998ZM79.566 22.7006H79.4987C79.0772 22.1993 78.2767 21.7454 77.2543 21.7454C75.1321 21.7454 73.177 23.6133 73.177 26.0123C73.177 28.4013 75.1221 30.2467 77.2543 30.2467C78.2642 30.2467 79.0772 29.7903 79.4987 29.2791H79.566V29.8901C79.566 31.5135 78.6982 32.3888 77.2992 32.3888C76.1545 32.3888 75.4438 31.5659 75.1545 30.8776L73.5311 31.5559C73.9974 32.6781 75.2418 34.0671 77.2967 34.0671C79.4862 34.0671 81.3416 32.7779 81.3416 29.6332V21.9998H79.576V22.7006C79.5785 22.7006 79.566 22.7006 79.566 22.7006ZM77.4214 28.5784C76.1321 28.5784 75.0548 27.5011 75.0548 26.0123C75.0548 24.511 76.1321 23.4237 77.4214 23.4237C78.6982 23.4237 79.6882 24.5235 79.6882 26.0123C79.7007 27.5011 78.7007 28.5784 77.4214 28.5784ZM101.8 17.5011H97.3341V29.9998H99.2019V25.2666H101.803C103.87 25.2666 105.903 23.7679 105.903 21.3888C105.903 19.0098 103.878 17.5011 101.8 17.5011ZM101.855 23.521H99.1994V19.2317H101.855C103.254 19.2317 104.045 20.3863 104.045 21.3764C104.045 22.3564 103.244 23.521 101.855 23.521ZM113.389 21.733C112.032 21.733 110.633 22.334 110.055 23.6432L111.711 24.3315C112.067 23.6432 112.721 23.4088 113.411 23.4088C114.379 23.4088 115.357 23.9873 115.379 25.0198V25.1519C115.045 24.9624 114.312 24.6731 113.434 24.6731C111.646 24.6731 109.833 25.6507 109.833 27.4836C109.833 29.1619 111.299 30.2392 112.933 30.2392C114.187 30.2392 114.878 29.6731 115.309 29.0173H115.377V29.9848H117.177V25.1968C117.177 22.9674 115.521 21.733 113.389 21.733ZM113.155 28.5784C112.544 28.5784 111.688 28.2791 111.688 27.511C111.688 26.5434 112.756 26.1769 113.666 26.1769C114.489 26.1769 114.878 26.3539 115.367 26.5983C115.232 27.7205 114.284 28.5684 113.155 28.5784ZM123.746 21.9998L121.601 27.4213H121.534L119.312 21.9998H117.302L120.636 29.5784L118.736 33.7903H120.681L125.81 21.9998H123.746ZM106.933 29.9998H108.8V17.5011H106.933V29.9998Z" fill="white"/>
<path fill-rule="evenodd" clip-rule="evenodd" d="M10.4339 7.53413C10.1446 7.84585 9.97754 8.32216 9.97754 8.9456V31.0578C9.97754 31.6812 10.1446 32.1575 10.4439 32.4568L10.5212 32.5241L22.9103 20.1351V19.8583L10.5112 7.4668L10.4339 7.53413Z" fill="white" stroke="black" stroke-linejoin="round"/>
<path fill-rule="evenodd" clip-rule="evenodd" d="M27.0323 24.2772L22.9001 20.1451V19.8558L27.0323 15.7236L27.1221 15.7785L32.0098 18.5566C33.4088 19.3446 33.4088 20.6463 32.0098 21.4443L27.1221 24.2224L27.0323 24.2772Z" fill="white" stroke="black" stroke-linejoin="round"/>
<path fill-rule="evenodd" clip-rule="evenodd" d="M27.1221 24.2219L22.9002 20L10.4338 32.4663C10.8902 32.9551 11.6558 33.01 12.5111 32.5337L27.1221 24.2219Z" fill="white" stroke="black" stroke-linejoin="round"/>
<path fill-rule="evenodd" clip-rule="evenodd" d="M27.1221 15.7784L12.5111 7.47918C11.6558 6.9904 10.8877 7.05774 10.4338 7.54651L22.9002 20.0004L27.1221 15.7784Z" fill="white" stroke="black" stroke-linejoin="round"/>
<g opacity="0.2">
<mask id="path-9-inside-1_9_19996" fill="white">
<path fill-rule="evenodd" clip-rule="evenodd" d="M27.0324 24.1318L12.5212 32.3763C11.7107 32.8427 10.9875 32.8102 10.5212 32.3863L10.4438 32.4636L10.5212 32.5309C10.9875 32.9524 11.7107 32.9873 12.5212 32.521L27.1321 24.2216L27.0324 24.1318Z"/>
</mask>
<path fill-rule="evenodd" clip-rule="evenodd" d="M27.0324 24.1318L12.5212 32.3763C11.7107 32.8427 10.9875 32.8102 10.5212 32.3863L10.4438 32.4636L10.5212 32.5309C10.9875 32.9524 11.7107 32.9873 12.5212 32.521L27.1321 24.2216L27.0324 24.1318Z" fill="white"/>
<path d="M27.0324 24.1318L27.7013 23.3885L27.1654 22.9062L26.5384 23.2624L27.0324 24.1318ZM12.5212 32.3763L12.0272 31.5068L12.0224 31.5096L12.5212 32.3763ZM10.5212 32.3863L11.1938 31.6463L10.4883 31.0049L9.81403 31.6792L10.5212 32.3863ZM10.4438 32.4636L9.73673 31.7565L8.9792 32.5141L9.78707 33.2177L10.4438 32.4636ZM10.5212 32.5309L11.1917 31.789L11.1848 31.7829L11.1779 31.7768L10.5212 32.5309ZM12.5212 32.521L12.0272 31.6514L12.0224 31.6542L12.5212 32.521ZM27.1321 24.2216L27.626 25.0911L28.832 24.4061L27.8011 23.4783L27.1321 24.2216ZM26.5384 23.2624L12.0272 31.5068L13.0151 33.2458L27.5264 25.0013L26.5384 23.2624ZM12.0224 31.5096C11.7326 31.6763 11.523 31.7162 11.4003 31.7152C11.2905 31.7143 11.234 31.6828 11.1938 31.6463L9.84848 33.1262C10.7494 33.9452 11.9848 33.8387 13.0199 33.2431L12.0224 31.5096ZM9.81403 31.6792L9.73673 31.7565L11.151 33.1707L11.2283 33.0934L9.81403 31.6792ZM9.78707 33.2177L9.86438 33.285L11.1779 31.7768L11.1006 31.7095L9.78707 33.2177ZM9.85065 33.2728C10.7493 34.085 11.9817 33.985 13.0199 33.3877L12.0224 31.6542C11.7335 31.8204 11.5242 31.86 11.4013 31.8589C11.2905 31.8579 11.2326 31.826 11.1917 31.789L9.85065 33.2728ZM13.0151 33.3905L27.626 25.0911L26.6382 23.3521L12.0273 31.6514L13.0151 33.3905ZM27.8011 23.4783L27.7013 23.3885L26.3634 24.8751L26.4632 24.9649L27.8011 23.4783Z" fill="black" mask="url(#path-9-inside-1_9_19996)"/>
</g>
<g opacity="0.12">
<mask id="path-11-inside-2_9_19996" fill="white">
<path fill-rule="evenodd" clip-rule="evenodd" d="M32.01 21.2993L27.02 24.1322L27.1098 24.2219L31.9976 21.4439C32.6983 21.0449 33.0425 20.5212 33.0425 20C33.0001 20.4788 32.6435 20.9327 32.01 21.2993Z"/>
</mask>
<path fill-rule="evenodd" clip-rule="evenodd" d="M32.01 21.2993L27.02 24.1322L27.1098 24.2219L31.9976 21.4439C32.6983 21.0449 33.0425 20.5212 33.0425 20C33.0001 20.4788 32.6435 20.9327 32.01 21.2993Z" fill="white"/>
<path d="M32.01 21.2993L32.5038 22.1689L32.5109 22.1648L32.01 21.2993ZM27.02 24.1322L26.5263 23.2625L25.3844 23.9108L26.3129 24.8393L27.02 24.1322ZM27.1098 24.2219L26.4027 24.9291L26.9415 25.4678L27.6039 25.0913L27.1098 24.2219ZM31.9976 21.4439L32.4917 22.3133L32.4924 22.3129L31.9976 21.4439ZM33.0425 20H34.0425L32.0464 19.9118L33.0425 20ZM31.5163 20.4296L26.5263 23.2625L27.5137 25.0018L32.5037 22.1689L31.5163 20.4296ZM26.3129 24.8393L26.4027 24.9291L27.8169 23.5148L27.7271 23.4251L26.3129 24.8393ZM27.6039 25.0913L32.4917 22.3133L31.5034 20.5745L26.6157 23.3526L27.6039 25.0913ZM32.4924 22.3129C33.3786 21.8083 34.0425 21.006 34.0425 20H32.0425C32.0425 20.0364 32.0181 20.2815 31.5028 20.5749L32.4924 22.3129ZM32.0464 19.9118C32.0449 19.928 32.0075 20.1453 31.5091 20.4337L32.5109 22.1648C33.2794 21.72 33.9552 21.0296 34.0386 20.0882L32.0464 19.9118Z" fill="black" mask="url(#path-11-inside-2_9_19996)"/>
</g>
<g opacity="0.25">
<mask id="path-13-inside-3_9_19996" fill="white">
<path fill-rule="evenodd" clip-rule="evenodd" d="M12.5112 7.6233L32.01 18.7006C32.6434 19.0572 33 19.5236 33.0549 19.9999C33.0549 19.4787 32.7108 18.955 32.01 18.556L12.5112 7.47866C11.1122 6.67816 9.97754 7.34649 9.97754 8.94499V9.08963C9.97754 7.48863 11.1122 6.83277 12.5112 7.6233Z"/>
</mask>
<path fill-rule="evenodd" clip-rule="evenodd" d="M12.5112 7.6233L32.01 18.7006C32.6434 19.0572 33 19.5236 33.0549 19.9999C33.0549 19.4787 32.7108 18.955 32.01 18.556L12.5112 7.47866C11.1122 6.67816 9.97754 7.34649 9.97754 8.94499V9.08963C9.97754 7.48863 11.1122 6.83277 12.5112 7.6233Z" fill="white"/>
<path d="M12.5112 7.6233L13.0052 6.75381L13.0032 6.75267L12.5112 7.6233ZM32.01 18.7006L31.5161 19.5701L31.5194 19.572L32.01 18.7006ZM33.0549 19.9999L32.0615 20.1143L34.0549 19.9999H33.0549ZM32.01 18.556L32.5048 17.687L32.504 17.6865L32.01 18.556ZM12.5112 7.47866L12.0146 8.34662L12.0173 8.34814L12.5112 7.47866ZM12.0173 8.49278L31.5161 19.5701L32.504 17.8311L13.0052 6.75381L12.0173 8.49278ZM31.5194 19.572C31.993 19.8386 32.0565 20.0715 32.0615 20.1143L34.0483 19.8855C33.9435 18.9756 33.2939 18.2759 32.5006 17.8292L31.5194 19.572ZM34.0549 19.9999C34.0549 18.9938 33.391 18.1916 32.5048 17.687L31.5152 19.425C32.0305 19.7184 32.0549 19.9635 32.0549 19.9999H34.0549ZM32.504 17.6865L13.0052 6.60917L12.0173 8.34814L31.5161 19.4255L32.504 17.6865ZM13.0079 6.6107C12.1213 6.10343 11.0894 5.94007 10.2168 6.44789C9.34547 6.95492 8.97754 7.93076 8.97754 8.94499H10.9775C10.9775 8.36072 11.1769 8.20314 11.2227 8.17651C11.2671 8.15065 11.5021 8.05338 12.0146 8.34661L13.0079 6.6107ZM8.97754 8.94499V9.08963H10.9775V8.94499H8.97754ZM10.9775 9.08963C10.9775 8.50433 11.1766 8.35061 11.2205 8.32523C11.2665 8.29862 11.5043 8.20292 12.0193 8.49392L13.0032 6.75267C12.1191 6.25314 11.0901 6.09011 10.219 6.59405C9.34578 7.09922 8.97754 8.07393 8.97754 9.08963H10.9775Z" fill="black" mask="url(#path-13-inside-3_9_19996)"/>
</g>
</g>
<defs>
<clipPath id="clip0_9_19996">
<rect width="136" height="40" fill="white"/>
</clipPath>
</defs>
</svg>
