<svg width="37" height="35" viewBox="0 0 37 35" fill="none" xmlns="http://www.w3.org/2000/svg">
<path d="M0.0883372 30.8345C0.695805 30.9213 1.40451 30.6465 2.21447 30.0101C3.05336 29.4026 4.13813 28.4336 5.46877 27.1029L26.5566 6.01507C27.8873 4.68443 28.8563 3.59966 29.4638 2.76077C30.1002 1.95082 30.375 1.2421 30.2882 0.634635L30.375 0.547852L34.1066 4.27945L34.0198 4.36623C33.4123 4.27945 32.6892 4.53979 31.8503 5.14726C31.0403 5.78366 29.97 6.76718 28.6394 8.09782L7.55152 29.1857C6.22088 30.5163 5.23736 31.5866 4.60096 32.3966C3.99349 33.2355 3.73315 33.9586 3.81993 34.5661L3.73315 34.6529L0.00155382 30.9213L0.0883372 30.8345Z" fill="#862021"/>
<path d="M32.0249 34.0181C32.1117 33.4106 31.8369 32.7019 31.2005 31.892C30.5931 31.0531 29.624 29.9683 28.2934 28.6377L7.2055 7.54982C5.87486 6.21917 4.79009 5.25012 3.9512 4.64265C3.14125 4.00625 2.43253 3.73145 1.82506 3.81823L1.73828 3.73145L5.46988 -0.000149937L5.55666 0.0866333C5.46988 0.694102 5.73022 1.41728 6.33769 2.25616C6.97408 3.06612 7.95761 4.13642 9.28825 5.46707L30.3761 26.5549C31.7067 27.8856 32.7771 28.8691 33.587 29.5055C34.4259 30.113 35.1491 30.3733 35.7565 30.2865L35.8433 30.3733L32.1117 34.1049L32.0249 34.0181Z" fill="#862021"/>
</svg>
