<svg width="106" height="30" viewBox="0 0 106 30" fill="none" xmlns="http://www.w3.org/2000/svg">
<rect x="0.75" y="0.875" width="105" height="28.25" fill="#F1F1F1"/>
<path d="M13.6854 16.2558C13.7481 15.6191 13.7794 14.8154 13.7898 14.116H15.199V18.5H16.6916V13.0409H12.4851C12.4851 13.0409 12.4538 15.2433 12.3807 15.9531C12.3076 16.8508 12.1302 17.3622 11.7335 17.3622C11.577 17.3622 11.5039 17.3205 11.5039 17.3205V18.5209C11.5039 18.5209 11.6605 18.6044 12.0258 18.6044C13.1218 18.6044 13.5289 17.7693 13.6854 16.2558ZM20.5089 18.6148C22.1477 18.6148 23.3899 17.5188 23.3899 15.7965V15.713C23.3899 14.0116 22.1582 12.9156 20.5194 12.9156C18.8806 12.9156 17.6385 14.0325 17.6385 15.7443V15.8278C17.6385 17.5293 18.8806 18.6148 20.5089 18.6148ZM20.5194 17.4666C19.6635 17.4666 19.1833 16.8403 19.1833 15.7965V15.713C19.1833 14.6692 19.6843 14.0638 20.5194 14.0638C21.3649 14.0638 21.8555 14.6901 21.8555 15.7339V15.807C21.8555 16.8403 21.3649 17.4666 20.5194 17.4666ZM28.0868 14.116V13.0409H24.3396V18.5H25.8322V14.116H28.0868ZM31.2957 18.6148C32.9344 18.6148 34.1766 17.5188 34.1766 15.7965V15.713C34.1766 14.0116 32.9449 12.9156 31.3061 12.9156C29.6673 12.9156 28.4252 14.0325 28.4252 15.7443V15.8278C28.4252 17.5293 29.6673 18.6148 31.2957 18.6148ZM31.3061 17.4666C30.4502 17.4666 29.97 16.8403 29.97 15.7965V15.713C29.97 14.6692 30.471 14.0638 31.3061 14.0638C32.1516 14.0638 32.6422 14.6901 32.6422 15.7339V15.807C32.6422 16.8403 32.1516 17.4666 31.3061 17.4666ZM39.2112 13.0409H34.4723V14.116H36.0902V18.5H37.5933V14.116H39.2112V13.0409ZM41.4975 18.5L43.606 14.8571V18.5H45.0987V13.0409H43.606L41.4975 16.6838V13.0409H40.0049V18.5H41.4975ZM49.7748 18.5H51.2674V13.0409H46.3615V18.5H47.8541V14.116H49.7748V18.5ZM58.1126 18.5H59.8244L57.6742 15.5356L59.6679 13.0409H58.0604L56.2964 15.379V13.0409H54.7933V18.5H56.2964V15.9218L58.1126 18.5ZM62.2715 16.2558C62.3341 15.6191 62.3655 14.8154 62.3759 14.116H63.785V18.5H65.2777V13.0409H61.0711C61.0711 13.0409 61.0398 15.2433 60.9668 15.9531C60.8937 16.8508 60.7162 17.3622 60.3196 17.3622C60.163 17.3622 60.09 17.3205 60.09 17.3205V18.5209C60.09 18.5209 60.2465 18.6044 60.6119 18.6044C61.7079 18.6044 62.1149 17.7693 62.2715 16.2558ZM68.0616 18.5L70.1701 14.8571V18.5H71.6628V13.0409H70.1701L68.0616 16.6838V13.0409H66.569V18.5H68.0616ZM75.4308 18.6148C76.9234 18.6148 77.8629 17.9572 78.0403 16.7777H76.6103C76.5163 17.237 76.1719 17.5397 75.4725 17.5397C74.6479 17.5397 74.1573 17.0178 74.1156 16.1097H78.0507V15.6922C78.0507 13.7402 76.7982 12.9156 75.389 12.9156C73.8024 12.9156 72.5812 14.0325 72.5812 15.7548V15.8383C72.5812 17.5814 73.7816 18.6148 75.4308 18.6148ZM74.1365 15.1807C74.2513 14.4083 74.7105 13.9594 75.389 13.9594C76.1093 13.9594 76.5268 14.3561 76.579 15.1807H74.1365ZM82.5043 18.5H83.9969V13.0409H82.5043V15.1807H80.4793V13.0409H78.9867V18.5H80.4793V16.2558H82.5043V18.5ZM89.5302 13.0409H84.7913V14.116H86.4092V18.5H87.9123V14.116H89.5302V13.0409ZM92.183 17.5606C91.6298 17.5606 91.3897 17.2996 91.3897 16.903C91.3897 16.3184 91.9012 16.1306 92.778 16.1306H93.3625V16.5898C93.3625 17.1952 92.8511 17.5606 92.183 17.5606ZM91.7342 18.6148C92.5901 18.6148 93.0703 18.2808 93.3834 17.8424V18.5H94.8552V14.9406C94.8552 13.4584 93.9053 12.9156 92.5692 12.9156C91.2332 12.9156 90.2102 13.4897 90.1163 14.784H91.5463C91.6089 14.3143 91.8803 14.0116 92.4753 14.0116C93.1642 14.0116 93.3625 14.3665 93.3625 15.0137V15.2329H92.7467C91.0766 15.2329 89.9075 15.713 89.9075 16.9865C89.9075 18.1347 90.7426 18.6148 91.7342 18.6148Z" fill="#407287"/>
</svg>
