<svg width="155" height="19" viewBox="0 0 155 19" fill="none" xmlns="http://www.w3.org/2000/svg">
<path d="M16.8921 0.296875H0V17.1891L16.8921 0.296875Z" fill="black"/>
<path d="M1.51172 18.732H18.4039V1.83984L1.51172 18.732Z" fill="black"/>
<path d="M28.1833 0.296875H22.2266V18.7031H25.9013V11.8453H28.2722C32.5693 11.8453 35.0587 9.76719 35.0587 6.175V6.08594C35.0587 2.40469 32.5397 0.296875 28.1833 0.296875ZM31.4432 6.175C31.4432 8.075 30.317 9.08438 28.2129 9.08438H25.931V3.23594H28.2129C30.4355 3.23594 31.4432 4.12656 31.4432 6.05625V6.175Z" fill="black"/>
<path d="M44.0413 7.54063H41.0185V3.29531H49.0201V0.296875H37.3438V18.7031H43.9524C48.1606 18.7031 50.5907 16.6547 50.5907 13.0922V13.0031C50.5907 9.5 48.2792 7.54063 44.0413 7.54063ZM41.0185 10.3016H43.745C45.9676 10.3016 47.0345 11.1922 47.0345 13.0031V13.0922C47.0345 14.9031 45.9676 15.8234 43.8635 15.8234H41.0185V10.3016Z" fill="black"/>
<path d="M59.7146 9.11406L67.3308 0.296875H63.2708L56.6029 8.22344V0.296875H52.8984V18.7328H56.6029V10.5687L63.3004 18.7328H67.6865L59.7146 9.11406Z" fill="black"/>
<path d="M67.8594 9.64844V9.44063C67.8594 3.97812 71.5342 0 76.5129 0C80.3655 0 83.5957 2.04844 83.981 6.05625H81.7583C81.2842 3.23594 79.6839 1.78125 76.5129 1.78125C72.6899 1.78125 70.1413 4.75 70.1413 9.41094V9.61875C70.1413 14.3094 72.5121 17.1594 76.4833 17.1594C79.5061 17.1594 81.5805 15.6453 82.0547 12.6469H84.1292C83.4772 16.9219 80.5433 19 76.424 19C71.1489 18.9703 67.8594 15.3188 67.8594 9.64844Z" fill="black"/>
<path d="M92.5515 2.10781H87.1875V0.296875H100.168V2.1375H94.8038V18.7625H92.5515V2.10781Z" fill="black"/>
<path d="M103.219 18.7625V0.296875H105.471V15.675L115.429 0.296875H117.681V18.7625H115.429V3.38437L105.471 18.7625H103.219Z" fill="black"/>
<path d="M121.621 18.9688C120.939 18.9688 120.613 18.7609 120.613 18.7609V16.5938C120.613 16.5938 120.91 16.6828 121.621 16.6828C123.103 16.6828 123.636 15.1687 123.903 12.0813C124.288 6.975 124.347 0.265625 124.347 0.265625H135.431V18.7312H133.179V2.16562H126.392C126.333 4.54063 126.214 8.72656 125.977 12.2594C125.77 15.7922 124.851 18.9688 121.621 18.9688Z" fill="black"/>
<path d="M140.055 0.296875H142.307V7.80781H145.3C148.797 7.80781 151.761 9.23281 151.761 13.1516V13.2406C151.761 17.1 148.856 18.7328 145.3 18.7328H140.055V0.296875ZM145.448 16.9516C147.938 16.9516 149.508 15.8531 149.508 13.2703V13.1812C149.508 10.8062 148.086 9.61875 145.448 9.61875H142.307V16.9812H145.448V16.9516Z" fill="black"/>
</svg>
