<svg width="10" height="15" viewBox="0 0 10 15" fill="none" xmlns="http://www.w3.org/2000/svg">
<path d="M4.7186 0.585938C2.5915 0.585938 0.867188 2.24854 0.867188 4.2994C0.867188 6.35032 2.5915 8.01303 4.7186 8.01303C6.8457 8.01303 8.57001 6.35032 8.57001 4.2994C8.57001 2.24854 6.8457 0.585938 4.7186 0.585938ZM4.7186 5.83457C3.83933 5.83457 3.12651 5.14723 3.12651 4.29946C3.12651 3.45168 3.83933 2.76439 4.7186 2.76439C5.59787 2.76439 6.31069 3.45168 6.31069 4.29946C6.31069 5.14723 5.59787 5.83457 4.7186 5.83457Z" fill="white"/>
<path d="M6.14033 10.9672C7.68221 10.6643 8.60618 9.96028 8.65507 9.92249C9.10625 9.57362 9.17873 8.93814 8.81689 8.50307C8.4551 8.06805 7.79608 7.99817 7.34479 8.34699C7.33525 8.35443 6.34977 9.08333 4.72831 9.08439C3.1069 9.08333 2.10059 8.35443 2.09105 8.34699C1.63976 7.99817 0.980736 8.06805 0.618953 8.50307C0.257115 8.93814 0.329593 9.57362 0.780774 9.92249C0.830324 9.96081 1.79243 10.6832 3.37752 10.9789L1.16841 13.2049C0.766941 13.6064 0.779011 14.2455 1.19536 14.6326C1.39857 14.8216 1.66048 14.9155 1.92218 14.9155C2.19655 14.9155 2.47064 14.8121 2.67611 14.6066L4.72836 12.4987L6.98791 14.6203C7.39731 15.0144 8.06025 15.0137 8.46888 14.6191C8.87752 14.2245 8.87702 13.5852 8.46772 13.1912L6.14033 10.9672Z" fill="white"/>
</svg>
