<svg width="14" height="13" viewBox="0 0 14 13" fill="none" xmlns="http://www.w3.org/2000/svg">
<path fill-rule="evenodd" clip-rule="evenodd" d="M1.21169 5.78252C4.81437 4.11133 7.21672 3.00957 8.41874 2.47726C11.8508 0.957397 12.5639 0.693381 13.0287 0.684663C13.1309 0.682746 13.3595 0.709721 13.5076 0.837641C13.6326 0.945655 13.667 1.09157 13.6835 1.19397C13.6999 1.29638 13.7204 1.52967 13.7041 1.71196C13.5182 3.79253 12.7134 8.84154 12.304 11.1718C12.1308 12.1578 11.7897 12.4885 11.4594 12.5208C10.7418 12.5911 10.1968 12.0158 9.50172 11.5307C8.41404 10.7716 7.79956 10.299 6.74378 9.55826C5.52363 8.70217 6.3146 8.23165 7.00996 7.46269C7.19193 7.26145 10.354 4.19921 10.4152 3.92142C10.4228 3.88668 10.4299 3.75717 10.3577 3.68879C10.2854 3.62041 10.1788 3.64379 10.1018 3.66239C9.99272 3.68875 8.25513 4.91155 4.88904 7.33079C4.39583 7.69138 3.94909 7.86707 3.54883 7.85786C3.10758 7.84771 2.25879 7.59223 1.6278 7.37384C0.853861 7.10599 0.238752 6.96437 0.292314 6.50947C0.320212 6.27253 0.626671 6.03022 1.21169 5.78252Z" fill="white"/>
</svg>
