<svg width="15" height="8" viewBox="0 0 15 8" fill="none" xmlns="http://www.w3.org/2000/svg">
<path fill-rule="evenodd" clip-rule="evenodd" d="M13.9827 0.601279C14.0865 0.294739 13.9827 0.0688678 13.5157 0.0688678L11.9648 0.0688678C11.5728 0.0688678 11.3941 0.26785 11.2903 0.477588C11.2903 0.477588 10.4947 2.2738 9.37618 3.4408C9.01297 3.77961 8.85153 3.89255 8.65551 3.89255C8.55174 3.89255 8.41337 3.77961 8.41337 3.47307L8.41337 0.585145C8.41337 0.219449 8.29229 0.0527344 7.96367 0.0527344L5.52492 0.0527344C5.28277 0.0527344 5.13287 0.219449 5.13287 0.391541C5.13287 0.741104 5.69211 0.82715 5.74977 1.8113L5.74977 3.94632C5.74977 4.40882 5.65752 4.49487 5.4615 4.49487C4.93685 4.49487 3.65694 2.68252 2.89014 0.617413C2.74024 0.208693 2.59034 0.0581122 2.1983 0.0581122L0.630117 0.0581122C0.180419 0.0581122 0.105469 0.257094 0.105469 0.466832C0.105469 0.843284 0.630117 2.75781 2.56152 5.28004C3.84143 7.00634 5.66329 7.93134 7.30065 7.93134C8.29229 7.93134 8.41337 7.7216 8.41337 7.37204L8.41337 6.06521C8.41337 5.64574 8.50561 5.57582 8.81694 5.57582C9.04179 5.57582 9.45113 5.68876 10.3678 6.51695C11.4229 7.50111 11.6016 7.94747 12.1897 7.94747L13.7406 7.94747C14.1903 7.94747 14.4036 7.73773 14.2825 7.32902C14.1499 6.9203 13.6368 6.33411 12.9738 5.6296C12.6106 5.23702 12.0686 4.80141 11.9072 4.59167C11.6823 4.31202 11.74 4.19909 11.9072 3.94632C11.8899 3.94095 13.7867 1.44023 13.9827 0.601279Z" fill="white"/>
</svg>
